<svg width="598" height="336" viewBox="0 0 598 336" fill="none" xmlns="http://www.w3.org/2000/svg">
<rect width="598" height="336" fill="#D9D9D9"/>
<path d="M108.682 185V158.818H112.705V185H108.682ZM110.727 154.455C109.943 154.455 109.267 154.188 108.699 153.653C108.142 153.119 107.864 152.477 107.864 151.727C107.864 150.977 108.142 150.335 108.699 149.801C109.267 149.267 109.943 149 110.727 149C111.511 149 112.182 149.267 112.739 149.801C113.307 150.335 113.591 150.977 113.591 151.727C113.591 152.477 113.307 153.119 112.739 153.653C112.182 154.188 111.511 154.455 110.727 154.455ZM120.072 185V158.818H123.959V162.909H124.3C124.845 161.511 125.726 160.426 126.942 159.653C128.158 158.869 129.618 158.477 131.322 158.477C133.05 158.477 134.487 158.869 135.635 159.653C136.794 160.426 137.697 161.511 138.345 162.909H138.618C139.288 161.557 140.294 160.483 141.635 159.688C142.976 158.881 144.584 158.477 146.459 158.477C148.8 158.477 150.714 159.21 152.203 160.676C153.692 162.131 154.436 164.398 154.436 167.477V185H150.413V167.477C150.413 165.545 149.885 164.165 148.828 163.335C147.771 162.506 146.527 162.091 145.095 162.091C143.254 162.091 141.828 162.648 140.817 163.761C139.805 164.864 139.3 166.261 139.3 167.955V185H135.209V167.068C135.209 165.58 134.726 164.381 133.76 163.472C132.794 162.551 131.55 162.091 130.027 162.091C128.982 162.091 128.004 162.369 127.095 162.926C126.197 163.483 125.47 164.256 124.913 165.244C124.368 166.222 124.095 167.352 124.095 168.636V185H120.072ZM169.496 185.614C167.837 185.614 166.331 185.301 164.979 184.676C163.626 184.04 162.553 183.125 161.757 181.932C160.962 180.727 160.564 179.273 160.564 177.568C160.564 176.068 160.859 174.852 161.45 173.92C162.041 172.977 162.831 172.239 163.82 171.705C164.808 171.17 165.899 170.773 167.092 170.511C168.297 170.239 169.507 170.023 170.723 169.864C172.314 169.659 173.604 169.506 174.592 169.403C175.592 169.29 176.32 169.102 176.774 168.841C177.24 168.58 177.473 168.125 177.473 167.477V167.341C177.473 165.659 177.013 164.352 176.092 163.42C175.183 162.489 173.803 162.023 171.95 162.023C170.03 162.023 168.524 162.443 167.433 163.284C166.342 164.125 165.575 165.023 165.132 165.977L161.314 164.614C161.996 163.023 162.905 161.784 164.041 160.898C165.189 160 166.439 159.375 167.791 159.023C169.155 158.659 170.496 158.477 171.814 158.477C172.655 158.477 173.621 158.58 174.712 158.784C175.814 158.977 176.876 159.381 177.899 159.994C178.933 160.608 179.791 161.534 180.473 162.773C181.155 164.011 181.496 165.67 181.496 167.75V185H177.473V181.455H177.268C176.996 182.023 176.541 182.631 175.905 183.278C175.268 183.926 174.422 184.477 173.365 184.932C172.308 185.386 171.018 185.614 169.496 185.614ZM170.109 182C171.7 182 173.041 181.688 174.132 181.062C175.234 180.438 176.064 179.631 176.621 178.642C177.189 177.653 177.473 176.614 177.473 175.523V171.841C177.303 172.045 176.928 172.233 176.348 172.403C175.78 172.562 175.121 172.705 174.371 172.83C173.632 172.943 172.911 173.045 172.206 173.136C171.513 173.216 170.95 173.284 170.518 173.341C169.473 173.477 168.496 173.699 167.587 174.006C166.689 174.301 165.962 174.75 165.405 175.352C164.859 175.943 164.587 176.75 164.587 177.773C164.587 179.17 165.104 180.227 166.138 180.943C167.183 181.648 168.507 182 170.109 182ZM199.406 195.364C197.463 195.364 195.793 195.114 194.395 194.614C192.997 194.125 191.832 193.477 190.901 192.67C189.98 191.875 189.247 191.023 188.702 190.114L191.906 187.864C192.27 188.341 192.73 188.886 193.287 189.5C193.844 190.125 194.605 190.665 195.571 191.119C196.548 191.585 197.827 191.818 199.406 191.818C201.52 191.818 203.264 191.307 204.639 190.284C206.014 189.261 206.702 187.659 206.702 185.477V180.159H206.361C206.065 180.636 205.645 181.227 205.099 181.932C204.565 182.625 203.793 183.244 202.781 183.79C201.781 184.324 200.429 184.591 198.724 184.591C196.611 184.591 194.713 184.091 193.031 183.091C191.361 182.091 190.037 180.636 189.06 178.727C188.094 176.818 187.611 174.5 187.611 171.773C187.611 169.091 188.082 166.756 189.026 164.767C189.969 162.767 191.281 161.222 192.963 160.131C194.645 159.028 196.588 158.477 198.793 158.477C200.497 158.477 201.849 158.761 202.849 159.33C203.861 159.886 204.634 160.523 205.168 161.239C205.713 161.943 206.134 162.523 206.429 162.977H206.838V158.818H210.724V185.75C210.724 188 210.213 189.83 209.19 191.239C208.179 192.659 206.815 193.699 205.099 194.358C203.395 195.028 201.497 195.364 199.406 195.364ZM199.27 180.977C200.884 180.977 202.247 180.608 203.361 179.869C204.474 179.131 205.321 178.068 205.901 176.682C206.48 175.295 206.77 173.636 206.77 171.705C206.77 169.818 206.486 168.153 205.918 166.71C205.349 165.267 204.509 164.136 203.395 163.318C202.281 162.5 200.906 162.091 199.27 162.091C197.565 162.091 196.145 162.523 195.009 163.386C193.884 164.25 193.037 165.409 192.469 166.864C191.912 168.318 191.634 169.932 191.634 171.705C191.634 173.523 191.918 175.131 192.486 176.528C193.065 177.915 193.918 179.006 195.043 179.801C196.179 180.585 197.588 180.977 199.27 180.977ZM229.065 185.545C226.543 185.545 224.366 184.989 222.537 183.875C220.719 182.75 219.315 181.182 218.327 179.17C217.349 177.148 216.861 174.795 216.861 172.114C216.861 169.432 217.349 167.068 218.327 165.023C219.315 162.966 220.69 161.364 222.452 160.216C224.224 159.057 226.293 158.477 228.656 158.477C230.02 158.477 231.366 158.705 232.696 159.159C234.026 159.614 235.236 160.352 236.327 161.375C237.418 162.386 238.287 163.727 238.935 165.398C239.582 167.068 239.906 169.125 239.906 171.568V173.273H219.724V169.795H235.815C235.815 168.318 235.52 167 234.929 165.841C234.349 164.682 233.52 163.767 232.44 163.097C231.372 162.426 230.111 162.091 228.656 162.091C227.054 162.091 225.668 162.489 224.497 163.284C223.338 164.068 222.446 165.091 221.821 166.352C221.196 167.614 220.884 168.966 220.884 170.409V172.727C220.884 174.705 221.224 176.381 221.906 177.756C222.599 179.119 223.56 180.159 224.787 180.875C226.014 181.58 227.44 181.932 229.065 181.932C230.122 181.932 231.077 181.784 231.929 181.489C232.793 181.182 233.537 180.727 234.162 180.125C234.787 179.511 235.27 178.75 235.611 177.841L239.497 178.932C239.088 180.25 238.401 181.409 237.435 182.409C236.469 183.398 235.276 184.17 233.855 184.727C232.435 185.273 230.838 185.545 229.065 185.545ZM246.026 185V158.818H249.912V162.909H250.253C250.798 161.511 251.679 160.426 252.895 159.653C254.111 158.869 255.571 158.477 257.276 158.477C259.003 158.477 260.44 158.869 261.588 159.653C262.747 160.426 263.651 161.511 264.298 162.909H264.571C265.241 161.557 266.247 160.483 267.588 159.688C268.929 158.881 270.537 158.477 272.412 158.477C274.753 158.477 276.668 159.21 278.156 160.676C279.645 162.131 280.389 164.398 280.389 167.477V185H276.366V167.477C276.366 165.545 275.838 164.165 274.781 163.335C273.724 162.506 272.48 162.091 271.048 162.091C269.207 162.091 267.781 162.648 266.77 163.761C265.759 164.864 265.253 166.261 265.253 167.955V185H261.162V167.068C261.162 165.58 260.679 164.381 259.713 163.472C258.747 162.551 257.503 162.091 255.98 162.091C254.935 162.091 253.957 162.369 253.048 162.926C252.151 163.483 251.423 164.256 250.866 165.244C250.321 166.222 250.048 167.352 250.048 168.636V185H246.026ZM301.244 194.818V158.818H305.131V162.977H305.608C305.903 162.523 306.313 161.943 306.835 161.239C307.369 160.523 308.131 159.886 309.119 159.33C310.119 158.761 311.472 158.477 313.176 158.477C315.381 158.477 317.324 159.028 319.006 160.131C320.688 161.233 322 162.795 322.943 164.818C323.886 166.841 324.358 169.227 324.358 171.977C324.358 174.75 323.886 177.153 322.943 179.188C322 181.21 320.693 182.778 319.023 183.892C317.352 184.994 315.426 185.545 313.244 185.545C311.563 185.545 310.216 185.267 309.205 184.71C308.193 184.142 307.415 183.5 306.869 182.784C306.324 182.057 305.903 181.455 305.608 180.977H305.267V194.818H301.244ZM305.199 171.909C305.199 173.886 305.489 175.631 306.068 177.142C306.648 178.642 307.494 179.818 308.608 180.67C309.722 181.511 311.085 181.932 312.699 181.932C314.381 181.932 315.784 181.489 316.909 180.602C318.045 179.705 318.898 178.5 319.466 176.989C320.045 175.466 320.335 173.773 320.335 171.909C320.335 170.068 320.051 168.409 319.483 166.932C318.926 165.443 318.08 164.267 316.943 163.403C315.818 162.528 314.403 162.091 312.699 162.091C311.063 162.091 309.688 162.506 308.574 163.335C307.46 164.153 306.619 165.301 306.051 166.778C305.483 168.244 305.199 169.955 305.199 171.909ZM330.494 185V158.818H334.381V162.773H334.653C335.131 161.477 335.994 160.426 337.244 159.619C338.494 158.812 339.903 158.409 341.472 158.409C341.767 158.409 342.136 158.415 342.58 158.426C343.023 158.437 343.358 158.455 343.585 158.477V162.568C343.449 162.534 343.136 162.483 342.648 162.415C342.17 162.335 341.665 162.295 341.131 162.295C339.858 162.295 338.722 162.562 337.722 163.097C336.733 163.619 335.949 164.347 335.369 165.278C334.801 166.199 334.517 167.25 334.517 168.432V185H330.494ZM358.193 185.545C355.83 185.545 353.756 184.983 351.972 183.858C350.199 182.733 348.812 181.159 347.812 179.136C346.824 177.114 346.33 174.75 346.33 172.045C346.33 169.318 346.824 166.937 347.812 164.903C348.812 162.869 350.199 161.29 351.972 160.165C353.756 159.04 355.83 158.477 358.193 158.477C360.557 158.477 362.625 159.04 364.398 160.165C366.182 161.29 367.568 162.869 368.557 164.903C369.557 166.937 370.057 169.318 370.057 172.045C370.057 174.75 369.557 177.114 368.557 179.136C367.568 181.159 366.182 182.733 364.398 183.858C362.625 184.983 360.557 185.545 358.193 185.545ZM358.193 181.932C359.989 181.932 361.466 181.472 362.625 180.551C363.784 179.631 364.642 178.42 365.199 176.92C365.756 175.42 366.034 173.795 366.034 172.045C366.034 170.295 365.756 168.665 365.199 167.153C364.642 165.642 363.784 164.42 362.625 163.489C361.466 162.557 359.989 162.091 358.193 162.091C356.398 162.091 354.92 162.557 353.761 163.489C352.602 164.42 351.744 165.642 351.188 167.153C350.631 168.665 350.352 170.295 350.352 172.045C350.352 173.795 350.631 175.42 351.188 176.92C351.744 178.42 352.602 179.631 353.761 180.551C354.92 181.472 356.398 181.932 358.193 181.932ZM376.197 158.818H380.22V186.909C380.22 188.523 379.942 189.92 379.385 191.102C378.839 192.284 378.01 193.199 376.896 193.847C375.794 194.494 374.402 194.818 372.72 194.818C372.584 194.818 372.447 194.818 372.311 194.818C372.175 194.818 372.038 194.818 371.902 194.818V191.068C372.038 191.068 372.163 191.068 372.277 191.068C372.391 191.068 372.516 191.068 372.652 191.068C373.879 191.068 374.777 190.705 375.345 189.977C375.913 189.261 376.197 188.239 376.197 186.909V158.818ZM378.175 154.455C377.391 154.455 376.714 154.188 376.146 153.653C375.589 153.119 375.311 152.477 375.311 151.727C375.311 150.977 375.589 150.335 376.146 149.801C376.714 149.267 377.391 149 378.175 149C378.959 149 379.629 149.267 380.186 149.801C380.754 150.335 381.038 150.977 381.038 151.727C381.038 152.477 380.754 153.119 380.186 153.653C379.629 154.188 378.959 154.455 378.175 154.455ZM398.565 185.545C396.043 185.545 393.866 184.989 392.037 183.875C390.219 182.75 388.815 181.182 387.827 179.17C386.849 177.148 386.361 174.795 386.361 172.114C386.361 169.432 386.849 167.068 387.827 165.023C388.815 162.966 390.19 161.364 391.952 160.216C393.724 159.057 395.793 158.477 398.156 158.477C399.52 158.477 400.866 158.705 402.196 159.159C403.526 159.614 404.736 160.352 405.827 161.375C406.918 162.386 407.787 163.727 408.435 165.398C409.082 167.068 409.406 169.125 409.406 171.568V173.273H389.224V169.795H405.315C405.315 168.318 405.02 167 404.429 165.841C403.849 164.682 403.02 163.767 401.94 163.097C400.872 162.426 399.611 162.091 398.156 162.091C396.554 162.091 395.168 162.489 393.997 163.284C392.838 164.068 391.946 165.091 391.321 166.352C390.696 167.614 390.384 168.966 390.384 170.409V172.727C390.384 174.705 390.724 176.381 391.406 177.756C392.099 179.119 393.06 180.159 394.287 180.875C395.514 181.58 396.94 181.932 398.565 181.932C399.622 181.932 400.577 181.784 401.429 181.489C402.293 181.182 403.037 180.727 403.662 180.125C404.287 179.511 404.77 178.75 405.111 177.841L408.997 178.932C408.588 180.25 407.901 181.409 406.935 182.409C405.969 183.398 404.776 184.17 403.355 184.727C401.935 185.273 400.338 185.545 398.565 185.545ZM426.162 185.545C423.707 185.545 421.594 184.966 419.821 183.807C418.048 182.648 416.685 181.051 415.73 179.017C414.776 176.983 414.298 174.659 414.298 172.045C414.298 169.386 414.787 167.04 415.764 165.006C416.753 162.96 418.128 161.364 419.889 160.216C421.662 159.057 423.73 158.477 426.094 158.477C427.935 158.477 429.594 158.818 431.071 159.5C432.548 160.182 433.759 161.136 434.702 162.364C435.645 163.591 436.23 165.023 436.457 166.659H432.435C432.128 165.466 431.446 164.409 430.389 163.489C429.344 162.557 427.935 162.091 426.162 162.091C424.594 162.091 423.219 162.5 422.037 163.318C420.866 164.125 419.952 165.267 419.293 166.744C418.645 168.21 418.321 169.932 418.321 171.909C418.321 173.932 418.639 175.693 419.276 177.193C419.923 178.693 420.832 179.858 422.003 180.688C423.185 181.517 424.571 181.932 426.162 181.932C427.207 181.932 428.156 181.75 429.009 181.386C429.861 181.023 430.582 180.5 431.173 179.818C431.764 179.136 432.185 178.318 432.435 177.364H436.457C436.23 178.909 435.668 180.301 434.77 181.54C433.884 182.767 432.707 183.744 431.241 184.472C429.787 185.188 428.094 185.545 426.162 185.545ZM453.724 158.818V162.227H440.156V158.818H453.724ZM444.111 152.545H448.134V177.5C448.134 178.636 448.298 179.489 448.628 180.057C448.969 180.614 449.401 180.989 449.923 181.182C450.457 181.364 451.02 181.455 451.611 181.455C452.054 181.455 452.418 181.432 452.702 181.386C452.986 181.33 453.213 181.284 453.384 181.25L454.202 184.864C453.929 184.966 453.548 185.068 453.06 185.17C452.571 185.284 451.952 185.341 451.202 185.341C450.065 185.341 448.952 185.097 447.861 184.608C446.781 184.119 445.884 183.375 445.168 182.375C444.463 181.375 444.111 180.114 444.111 178.591V152.545ZM485.48 150.091V185H481.253V154.523H481.048L472.526 160.182V155.886L481.253 150.091H485.48Z" fill="white"/>
</svg>
